<mxfile host="app.diagrams.net" modified="2024-06-02T01:00:30.464Z" agent="Mozilla/5.0 (Windows NT 10.0; Win64; x64) AppleWebKit/537.36 (KHTML, like Gecko) Chrome/125.0.0.0 Safari/537.36 Edg/125.0.0.0" etag="lxXjw-22215gY5cdocAF" scale="1" border="0" version="24.4.13" type="device">
  <diagram name="Página-1" id="pIVpcVLuQP4PjYcLKrlU">
    <mxGraphModel dx="794" dy="430" grid="1" gridSize="10" guides="1" tooltips="1" connect="1" arrows="1" fold="1" page="1" pageScale="1" pageWidth="827" pageHeight="1169" math="0" shadow="0">
      <root>
        <mxCell id="0" />
        <mxCell id="1" parent="0" />
        <mxCell id="Co0_di57h_driLxRPKP6-1" value="Usuario" style="swimlane;fontStyle=1;align=center;verticalAlign=top;childLayout=stackLayout;horizontal=1;startSize=26;horizontalStack=0;resizeParent=1;resizeParentMax=0;resizeLast=0;collapsible=1;marginBottom=0;whiteSpace=wrap;html=1;" parent="1" vertex="1">
          <mxGeometry x="40" y="240" width="170" height="160" as="geometry" />
        </mxCell>
        <mxCell id="Co0_di57h_driLxRPKP6-2" value="+ tipo_documento: int&lt;br&gt;+ documento: int&lt;br&gt;&lt;div&gt;- nombre: str&lt;/div&gt;&lt;div&gt;- apellido: str&lt;/div&gt;&lt;div&gt;- email: str&lt;/div&gt;&lt;div&gt;- contraseña: str&lt;/div&gt;" style="text;align=left;verticalAlign=top;spacingLeft=4;spacingRight=4;overflow=hidden;rotatable=0;points=[[0,0.5],[1,0.5]];portConstraint=eastwest;whiteSpace=wrap;html=1;" parent="Co0_di57h_driLxRPKP6-1" vertex="1">
          <mxGeometry y="26" width="170" height="94" as="geometry" />
        </mxCell>
        <mxCell id="Co0_di57h_driLxRPKP6-3" value="" style="line;strokeWidth=1;fillColor=none;align=left;verticalAlign=middle;spacingTop=-1;spacingLeft=3;spacingRight=3;rotatable=0;labelPosition=right;points=[];portConstraint=eastwest;strokeColor=inherit;" parent="Co0_di57h_driLxRPKP6-1" vertex="1">
          <mxGeometry y="120" width="170" height="8" as="geometry" />
        </mxCell>
        <mxCell id="Co0_di57h_driLxRPKP6-4" value="+ cambiarContraseña()" style="text;strokeColor=none;fillColor=none;align=left;verticalAlign=top;spacingLeft=4;spacingRight=4;overflow=hidden;rotatable=0;points=[[0,0.5],[1,0.5]];portConstraint=eastwest;whiteSpace=wrap;html=1;" parent="Co0_di57h_driLxRPKP6-1" vertex="1">
          <mxGeometry y="128" width="170" height="32" as="geometry" />
        </mxCell>
        <mxCell id="Co0_di57h_driLxRPKP6-5" value="Portafolio" style="swimlane;fontStyle=1;align=center;verticalAlign=top;childLayout=stackLayout;horizontal=1;startSize=26;horizontalStack=0;resizeParent=1;resizeParentMax=0;resizeLast=0;collapsible=1;marginBottom=0;whiteSpace=wrap;html=1;" parent="1" vertex="1">
          <mxGeometry x="380" y="240" width="180" height="190" as="geometry" />
        </mxCell>
        <mxCell id="Co0_di57h_driLxRPKP6-6" value="&lt;div&gt;+id_portafolio: int&lt;/div&gt;&lt;div&gt;+documento_usuario: int&lt;/div&gt;# saldo: double&lt;br&gt;# total_invertido: double&lt;br&gt;&lt;div&gt;# balance: double&lt;/div&gt;&lt;div&gt;# valor_comprometido: double&lt;/div&gt;" style="text;align=left;verticalAlign=top;spacingLeft=4;spacingRight=4;overflow=hidden;rotatable=0;points=[[0,0.5],[1,0.5]];portConstraint=eastwest;whiteSpace=wrap;html=1;" parent="Co0_di57h_driLxRPKP6-5" vertex="1">
          <mxGeometry y="26" width="180" height="104" as="geometry" />
        </mxCell>
        <mxCell id="Co0_di57h_driLxRPKP6-7" value="" style="line;strokeWidth=1;fillColor=none;align=left;verticalAlign=middle;spacingTop=-1;spacingLeft=3;spacingRight=3;rotatable=0;labelPosition=right;points=[];portConstraint=eastwest;strokeColor=inherit;" parent="Co0_di57h_driLxRPKP6-5" vertex="1">
          <mxGeometry y="130" width="180" height="8" as="geometry" />
        </mxCell>
        <mxCell id="Co0_di57h_driLxRPKP6-8" value="+ mostrarPortafolio(): str&lt;div&gt;+ realizarTransaccion()&lt;/div&gt;" style="text;strokeColor=none;fillColor=none;align=left;verticalAlign=top;spacingLeft=4;spacingRight=4;overflow=hidden;rotatable=0;points=[[0,0.5],[1,0.5]];portConstraint=eastwest;whiteSpace=wrap;html=1;" parent="Co0_di57h_driLxRPKP6-5" vertex="1">
          <mxGeometry y="138" width="180" height="52" as="geometry" />
        </mxCell>
        <mxCell id="Co0_di57h_driLxRPKP6-9" value="Transaccion" style="swimlane;fontStyle=1;align=center;verticalAlign=top;childLayout=stackLayout;horizontal=1;startSize=26;horizontalStack=0;resizeParent=1;resizeParentMax=0;resizeLast=0;collapsible=1;marginBottom=0;whiteSpace=wrap;html=1;" parent="1" vertex="1">
          <mxGeometry x="375" y="615" width="170" height="200" as="geometry" />
        </mxCell>
        <mxCell id="Co0_di57h_driLxRPKP6-10" value="&lt;div&gt;+ id_transaccion: int&lt;/div&gt;&lt;div&gt;+ id_portafolio: int&lt;br&gt;+ id_empresa: int&lt;/div&gt;- precio: double&lt;br&gt;- cantidad: int&lt;br&gt;&lt;div&gt;- comision: double&lt;/div&gt;&lt;div&gt;- fecha: date&lt;/div&gt;" style="text;align=left;verticalAlign=top;spacingLeft=4;spacingRight=4;overflow=hidden;rotatable=0;points=[[0,0.5],[1,0.5]];portConstraint=eastwest;whiteSpace=wrap;html=1;" parent="Co0_di57h_driLxRPKP6-9" vertex="1">
          <mxGeometry y="26" width="170" height="114" as="geometry" />
        </mxCell>
        <mxCell id="Co0_di57h_driLxRPKP6-11" value="" style="line;strokeWidth=1;fillColor=none;align=left;verticalAlign=middle;spacingTop=-1;spacingLeft=3;spacingRight=3;rotatable=0;labelPosition=right;points=[];portConstraint=eastwest;strokeColor=inherit;" parent="Co0_di57h_driLxRPKP6-9" vertex="1">
          <mxGeometry y="140" width="170" height="8" as="geometry" />
        </mxCell>
        <mxCell id="Co0_di57h_driLxRPKP6-12" value="+ comprarAccion()&lt;div&gt;+ venderAccion()&lt;/div&gt;" style="text;strokeColor=none;fillColor=none;align=left;verticalAlign=top;spacingLeft=4;spacingRight=4;overflow=hidden;rotatable=0;points=[[0,0.5],[1,0.5]];portConstraint=eastwest;whiteSpace=wrap;html=1;" parent="Co0_di57h_driLxRPKP6-9" vertex="1">
          <mxGeometry y="148" width="170" height="52" as="geometry" />
        </mxCell>
        <mxCell id="Co0_di57h_driLxRPKP6-13" value="TipoTransaccion" style="swimlane;fontStyle=1;align=center;verticalAlign=top;childLayout=stackLayout;horizontal=1;startSize=26;horizontalStack=0;resizeParent=1;resizeParentMax=0;resizeLast=0;collapsible=1;marginBottom=0;whiteSpace=wrap;html=1;" parent="1" vertex="1">
          <mxGeometry x="70" y="627" width="160" height="86" as="geometry" />
        </mxCell>
        <mxCell id="Co0_di57h_driLxRPKP6-14" value="# tipo: str" style="text;strokeColor=none;fillColor=none;align=left;verticalAlign=top;spacingLeft=4;spacingRight=4;overflow=hidden;rotatable=0;points=[[0,0.5],[1,0.5]];portConstraint=eastwest;whiteSpace=wrap;html=1;" parent="Co0_di57h_driLxRPKP6-13" vertex="1">
          <mxGeometry y="26" width="160" height="26" as="geometry" />
        </mxCell>
        <mxCell id="Co0_di57h_driLxRPKP6-15" value="" style="line;strokeWidth=1;fillColor=none;align=left;verticalAlign=middle;spacingTop=-1;spacingLeft=3;spacingRight=3;rotatable=0;labelPosition=right;points=[];portConstraint=eastwest;strokeColor=inherit;" parent="Co0_di57h_driLxRPKP6-13" vertex="1">
          <mxGeometry y="52" width="160" height="8" as="geometry" />
        </mxCell>
        <mxCell id="Co0_di57h_driLxRPKP6-16" value="# seleccionarTipo()" style="text;strokeColor=none;fillColor=none;align=left;verticalAlign=top;spacingLeft=4;spacingRight=4;overflow=hidden;rotatable=0;points=[[0,0.5],[1,0.5]];portConstraint=eastwest;whiteSpace=wrap;html=1;" parent="Co0_di57h_driLxRPKP6-13" vertex="1">
          <mxGeometry y="60" width="160" height="26" as="geometry" />
        </mxCell>
        <mxCell id="Co0_di57h_driLxRPKP6-17" value="Extends" style="endArrow=block;endSize=16;endFill=0;html=1;rounded=0;" parent="1" edge="1">
          <mxGeometry width="160" relative="1" as="geometry">
            <mxPoint x="375" y="669.5" as="sourcePoint" />
            <mxPoint x="235" y="669.5" as="targetPoint" />
          </mxGeometry>
        </mxCell>
        <mxCell id="Co0_di57h_driLxRPKP6-18" value="Relation" style="endArrow=open;html=1;endSize=12;startArrow=diamondThin;startSize=14;startFill=0;edgeStyle=orthogonalEdgeStyle;rounded=0;" parent="1" edge="1">
          <mxGeometry relative="1" as="geometry">
            <mxPoint x="214" y="329.5" as="sourcePoint" />
            <mxPoint x="374" y="329.5" as="targetPoint" />
          </mxGeometry>
        </mxCell>
        <mxCell id="Co0_di57h_driLxRPKP6-19" value="0..n" style="edgeLabel;resizable=0;html=1;align=left;verticalAlign=top;" parent="Co0_di57h_driLxRPKP6-18" connectable="0" vertex="1">
          <mxGeometry x="-1" relative="1" as="geometry" />
        </mxCell>
        <mxCell id="Co0_di57h_driLxRPKP6-20" value="1" style="edgeLabel;resizable=0;html=1;align=right;verticalAlign=top;" parent="Co0_di57h_driLxRPKP6-18" connectable="0" vertex="1">
          <mxGeometry x="1" relative="1" as="geometry" />
        </mxCell>
        <mxCell id="Co0_di57h_driLxRPKP6-27" value="Accion" style="swimlane;fontStyle=1;align=center;verticalAlign=top;childLayout=stackLayout;horizontal=1;startSize=26;horizontalStack=0;resizeParent=1;resizeParentMax=0;resizeLast=0;collapsible=1;marginBottom=0;whiteSpace=wrap;html=1;" parent="1" vertex="1">
          <mxGeometry x="740" y="590" width="190" height="250" as="geometry" />
        </mxCell>
        <mxCell id="Co0_di57h_driLxRPKP6-28" value="+ id_empresa: int&lt;br&gt;+ precio_compra: double&lt;br&gt;+ precio_venta: double&lt;br&gt;&lt;div&gt;+ cantidad_venta_diaria: int&lt;/div&gt;&lt;div&gt;+ cantidad_compra_diaria: int&lt;/div&gt;&lt;div&gt;+ ultimo_operado: double&lt;/div&gt;&lt;div&gt;+ apertura: double&lt;/div&gt;&lt;div&gt;+ minimo_diario: double&lt;/div&gt;&lt;div&gt;+ maximo_diario: double&lt;/div&gt;&lt;div&gt;+ ultimo_cierre: double&lt;/div&gt;&lt;div&gt;&lt;br&gt;&lt;/div&gt;" style="text;align=left;verticalAlign=top;spacingLeft=4;spacingRight=4;overflow=hidden;rotatable=0;points=[[0,0.5],[1,0.5]];portConstraint=eastwest;whiteSpace=wrap;html=1;" parent="Co0_di57h_driLxRPKP6-27" vertex="1">
          <mxGeometry y="26" width="190" height="164" as="geometry" />
        </mxCell>
        <mxCell id="Co0_di57h_driLxRPKP6-29" value="" style="line;strokeWidth=1;fillColor=none;align=left;verticalAlign=middle;spacingTop=-1;spacingLeft=3;spacingRight=3;rotatable=0;labelPosition=right;points=[];portConstraint=eastwest;strokeColor=inherit;" parent="Co0_di57h_driLxRPKP6-27" vertex="1">
          <mxGeometry y="190" width="190" height="8" as="geometry" />
        </mxCell>
        <mxCell id="Co0_di57h_driLxRPKP6-30" value="+ mostrarCotizacion(): str&lt;div&gt;+ actualizarCotizacion()&lt;/div&gt;" style="text;strokeColor=none;fillColor=none;align=left;verticalAlign=top;spacingLeft=4;spacingRight=4;overflow=hidden;rotatable=0;points=[[0,0.5],[1,0.5]];portConstraint=eastwest;whiteSpace=wrap;html=1;" parent="Co0_di57h_driLxRPKP6-27" vertex="1">
          <mxGeometry y="198" width="190" height="52" as="geometry" />
        </mxCell>
        <mxCell id="Co0_di57h_driLxRPKP6-41" value="Extends" style="endArrow=block;endSize=16;endFill=0;html=1;rounded=0;entryX=0.019;entryY=0.716;entryDx=0;entryDy=0;entryPerimeter=0;exitX=1.014;exitY=0.642;exitDx=0;exitDy=0;exitPerimeter=0;" parent="1" source="Co0_di57h_driLxRPKP6-28" target="3SVaCIWvZiVqpa007JQr-4" edge="1">
          <mxGeometry width="160" relative="1" as="geometry">
            <mxPoint x="829.5" y="590" as="sourcePoint" />
            <mxPoint x="829.5" y="475" as="targetPoint" />
          </mxGeometry>
        </mxCell>
        <mxCell id="3SVaCIWvZiVqpa007JQr-3" value="Empresa" style="swimlane;fontStyle=1;align=center;verticalAlign=top;childLayout=stackLayout;horizontal=1;startSize=26;horizontalStack=0;resizeParent=1;resizeParentMax=0;resizeLast=0;collapsible=1;marginBottom=0;whiteSpace=wrap;html=1;" parent="1" vertex="1">
          <mxGeometry x="1081" y="658" width="160" height="114" as="geometry" />
        </mxCell>
        <mxCell id="3SVaCIWvZiVqpa007JQr-4" value="+ id_empresa: int&lt;div&gt;+ nombre_empresa: str&lt;/div&gt;&lt;div&gt;+ simbolo: str&lt;/div&gt;" style="text;strokeColor=none;fillColor=none;align=left;verticalAlign=top;spacingLeft=4;spacingRight=4;overflow=hidden;rotatable=0;points=[[0,0.5],[1,0.5]];portConstraint=eastwest;whiteSpace=wrap;html=1;" parent="3SVaCIWvZiVqpa007JQr-3" vertex="1">
          <mxGeometry y="26" width="160" height="54" as="geometry" />
        </mxCell>
        <mxCell id="3SVaCIWvZiVqpa007JQr-5" value="" style="line;strokeWidth=1;fillColor=none;align=left;verticalAlign=middle;spacingTop=-1;spacingLeft=3;spacingRight=3;rotatable=0;labelPosition=right;points=[];portConstraint=eastwest;strokeColor=inherit;" parent="3SVaCIWvZiVqpa007JQr-3" vertex="1">
          <mxGeometry y="80" width="160" height="8" as="geometry" />
        </mxCell>
        <mxCell id="3SVaCIWvZiVqpa007JQr-6" value="- crearAccion()" style="text;strokeColor=none;fillColor=none;align=left;verticalAlign=top;spacingLeft=4;spacingRight=4;overflow=hidden;rotatable=0;points=[[0,0.5],[1,0.5]];portConstraint=eastwest;whiteSpace=wrap;html=1;" parent="3SVaCIWvZiVqpa007JQr-3" vertex="1">
          <mxGeometry y="88" width="160" height="26" as="geometry" />
        </mxCell>
        <mxCell id="x3qlFHSohOYih90iz7tH-1" value="Use" style="endArrow=open;endSize=12;dashed=1;html=1;rounded=0;entryX=0.333;entryY=1;entryDx=0;entryDy=0;entryPerimeter=0;" parent="1" edge="1">
          <mxGeometry width="160" relative="1" as="geometry">
            <mxPoint x="459.56" y="615" as="sourcePoint" />
            <mxPoint x="459.50000000000006" y="450" as="targetPoint" />
          </mxGeometry>
        </mxCell>
        <mxCell id="x3qlFHSohOYih90iz7tH-2" value="Use" style="endArrow=open;endSize=12;dashed=1;html=1;rounded=0;entryX=-0.014;entryY=0.638;entryDx=0;entryDy=0;entryPerimeter=0;" parent="1" target="Co0_di57h_driLxRPKP6-28" edge="1">
          <mxGeometry width="160" relative="1" as="geometry">
            <mxPoint x="545" y="720" as="sourcePoint" />
            <mxPoint x="705" y="720" as="targetPoint" />
          </mxGeometry>
        </mxCell>
        <mxCell id="QhOh0GwA53v3INDFWFhD-1" value="&lt;p style=&quot;margin:0px;margin-top:4px;text-align:center;&quot;&gt;&lt;b&gt;AccionesDelPortafolio&lt;/b&gt;&lt;/p&gt;&lt;hr size=&quot;1&quot; style=&quot;border-style:solid;&quot;&gt;&lt;p style=&quot;margin:0px;margin-left:4px;&quot;&gt;+ id_portafolio: int&lt;/p&gt;&lt;p style=&quot;margin:0px;margin-left:4px;&quot;&gt;+ id_empresa: int&lt;/p&gt;&lt;p style=&quot;margin:0px;margin-left:4px;&quot;&gt;+ cantidad: int&lt;/p&gt;&lt;hr size=&quot;1&quot; style=&quot;border-style:solid;&quot;&gt;&lt;p style=&quot;margin:0px;margin-left:4px;&quot;&gt;+ mostrarAcciones()&lt;/p&gt;" style="verticalAlign=top;align=left;overflow=fill;html=1;whiteSpace=wrap;" parent="1" vertex="1">
          <mxGeometry x="750" y="300" width="160" height="110" as="geometry" />
        </mxCell>
        <mxCell id="QhOh0GwA53v3INDFWFhD-2" value="1" style="endArrow=open;html=1;endSize=12;startArrow=diamondThin;startSize=14;startFill=1;edgeStyle=orthogonalEdgeStyle;align=left;verticalAlign=bottom;rounded=0;entryX=0;entryY=0.5;entryDx=0;entryDy=0;" parent="1" target="QhOh0GwA53v3INDFWFhD-1" edge="1">
          <mxGeometry x="-1" y="15" relative="1" as="geometry">
            <mxPoint x="560" y="354.5" as="sourcePoint" />
            <mxPoint x="720" y="354.5" as="targetPoint" />
            <mxPoint as="offset" />
          </mxGeometry>
        </mxCell>
        <mxCell id="QhOh0GwA53v3INDFWFhD-3" value="1" style="endArrow=open;html=1;endSize=12;startArrow=diamondThin;startSize=14;startFill=1;edgeStyle=orthogonalEdgeStyle;align=left;verticalAlign=bottom;rounded=0;exitX=0.5;exitY=0;exitDx=0;exitDy=0;entryX=0.531;entryY=1;entryDx=0;entryDy=0;entryPerimeter=0;" parent="1" source="Co0_di57h_driLxRPKP6-27" target="QhOh0GwA53v3INDFWFhD-1" edge="1">
          <mxGeometry x="-0.8889" y="-15" relative="1" as="geometry">
            <mxPoint x="840" y="580" as="sourcePoint" />
            <mxPoint x="830" y="413" as="targetPoint" />
            <mxPoint as="offset" />
          </mxGeometry>
        </mxCell>
      </root>
    </mxGraphModel>
  </diagram>
</mxfile>
